<?xml version="1.0" encoding="UTF-8"?>
<svg viewBox="0 0 500 500" xmlns="http://www.w3.org/2000/svg">
  <!-- Background Circle -->
  <circle cx="250" cy="250" r="240" fill="#f8f8f8" />
  
  <!-- Sync Arrows forming a circle -->
  <path d="M250 70 A180 180 0 0 1 430 250" stroke="#4CAF50" stroke-width="15" fill="none" stroke-linecap="round" />
  <path d="M430 250 A180 180 0 0 1 250 430" stroke="#2196F3" stroke-width="15" fill="none" stroke-linecap="round" />
  <path d="M250 430 A180 180 0 0 1 70 250" stroke="#9C27B0" stroke-width="15" fill="none" stroke-linecap="round" />
  <path d="M70 250 A180 180 0 0 1 250 70" stroke="#FF9800" stroke-width="15" fill="none" stroke-linecap="round" />
  
  <!-- Pulse Line -->
  <path d="M130 250 L210 250 L230 200 L270 300 L290 250 L370 250" stroke="#F44336" stroke-width="8" fill="none" stroke-linecap="round" />
  
  <!-- AI Node Points -->
  <circle cx="210" cy="250" r="10" fill="#333" />
  <circle cx="230" cy="200" r="10" fill="#333" />
  <circle cx="270" cy="300" r="10" fill="#333" />
  <circle cx="290" cy="250" r="10" fill="#333" />
  

  

</svg>
